<svg xmlns="http://www.w3.org/2000/svg" xmlns:xlink="http://www.w3.org/1999/xlink" width="500" zoomAndPan="magnify" viewBox="0 0 375 225" height="300" preserveAspectRatio="xMidYMid meet" version="1.0"><defs><clipPath id="b35a287b97"><path d="M 19.761719 112.5 L 364 112.5 L 364 219.636719 L 19.761719 219.636719 Z M 19.761719 112.5 " clip-rule="nonzero"/></clipPath><clipPath id="9b93e1aaed"><path d="M 73.332031 112.5 L 310.425781 112.5 C 324.632812 112.5 338.257812 118.144531 348.304688 128.191406 C 358.351562 138.234375 363.992188 151.863281 363.992188 166.070312 C 363.992188 180.277344 358.351562 193.902344 348.304688 203.949219 C 338.257812 213.996094 324.632812 219.636719 310.425781 219.636719 L 73.332031 219.636719 C 59.125 219.636719 45.5 213.996094 35.453125 203.949219 C 25.40625 193.902344 19.761719 180.277344 19.761719 166.070312 C 19.761719 151.863281 25.40625 138.234375 35.453125 128.191406 C 45.5 118.144531 59.125 112.5 73.332031 112.5 Z M 73.332031 112.5 " clip-rule="nonzero"/></clipPath><clipPath id="059bd87b8e"><path d="M 0.761719 0.5 L 345 0.5 L 345 107.636719 L 0.761719 107.636719 Z M 0.761719 0.5 " clip-rule="nonzero"/></clipPath><clipPath id="fbcd8afb30"><path d="M 54.332031 0.5 L 291.425781 0.5 C 305.632812 0.5 319.257812 6.144531 329.304688 16.191406 C 339.351562 26.234375 344.992188 39.863281 344.992188 54.070312 C 344.992188 68.277344 339.351562 81.902344 329.304688 91.949219 C 319.257812 101.996094 305.632812 107.636719 291.425781 107.636719 L 54.332031 107.636719 C 40.125 107.636719 26.5 101.996094 16.453125 91.949219 C 6.40625 81.902344 0.761719 68.277344 0.761719 54.070312 C 0.761719 39.863281 6.40625 26.234375 16.453125 16.191406 C 26.5 6.144531 40.125 0.5 54.332031 0.5 Z M 54.332031 0.5 " clip-rule="nonzero"/></clipPath><clipPath id="dee1f38a63"><rect x="0" width="345" y="0" height="108"/></clipPath><clipPath id="9d57d19af0"><path d="M 12.503906 75.382812 L 307.96875 75.382812 L 307.96875 199.179688 L 12.503906 199.179688 Z M 12.503906 75.382812 " clip-rule="nonzero"/></clipPath><clipPath id="3665d7fafb"><path d="M 74.402344 75.382812 L 245.730469 75.382812 C 262.148438 75.382812 277.890625 81.90625 289.5 93.511719 C 301.105469 105.121094 307.628906 120.863281 307.628906 137.28125 C 307.628906 153.699219 301.105469 169.441406 289.5 181.050781 C 277.890625 192.660156 262.148438 199.179688 245.730469 199.179688 L 74.402344 199.179688 C 57.984375 199.179688 42.242188 192.660156 30.632812 181.050781 C 19.023438 169.441406 12.503906 153.699219 12.503906 137.28125 C 12.503906 120.863281 19.023438 105.121094 30.632812 93.511719 C 42.242188 81.90625 57.984375 75.382812 74.402344 75.382812 Z M 74.402344 75.382812 " clip-rule="nonzero"/></clipPath><clipPath id="be779fc111"><path d="M 0.503906 0.382812 L 295.679688 0.382812 L 295.679688 124.179688 L 0.503906 124.179688 Z M 0.503906 0.382812 " clip-rule="nonzero"/></clipPath><clipPath id="25b93556ee"><path d="M 62.402344 0.382812 L 233.730469 0.382812 C 250.148438 0.382812 265.890625 6.90625 277.5 18.511719 C 289.105469 30.121094 295.628906 45.863281 295.628906 62.28125 C 295.628906 78.699219 289.105469 94.441406 277.5 106.050781 C 265.890625 117.660156 250.148438 124.179688 233.730469 124.179688 L 62.402344 124.179688 C 45.984375 124.179688 30.242188 117.660156 18.632812 106.050781 C 7.023438 94.441406 0.503906 78.699219 0.503906 62.28125 C 0.503906 45.863281 7.023438 30.121094 18.632812 18.511719 C 30.242188 6.90625 45.984375 0.382812 62.402344 0.382812 Z M 62.402344 0.382812 " clip-rule="nonzero"/></clipPath><clipPath id="10bc091814"><rect x="0" width="296" y="0" height="125"/></clipPath><clipPath id="b559354be9"><path d="M 107 10.660156 L 293.917969 10.660156 L 293.917969 150.375 L 107 150.375 Z M 107 10.660156 " clip-rule="nonzero"/></clipPath><clipPath id="fa9d33f97f"><path d="M 232.488281 14.867188 L 233.574219 15.164062 C 243.074219 17.757812 252.140625 21.722656 260.496094 26.933594 L 261.578125 27.609375 C 269.191406 32.363281 275.902344 38.429688 281.390625 45.535156 L 282.113281 46.46875 C 287.105469 52.929688 290.648438 60.386719 292.503906 68.339844 C 294.359375 76.277344 294.367188 84.535156 292.53125 92.480469 L 292.503906 92.585938 C 290.652344 100.605469 287.0625 108.125 281.996094 114.613281 L 281.390625 115.390625 C 275.902344 122.421875 269.21875 128.433594 261.652344 133.15625 L 260.496094 133.878906 C 252.140625 139.089844 243.074219 143.054688 233.574219 145.648438 L 232.488281 145.945312 C 222.257812 148.738281 211.703125 150.152344 201.097656 150.152344 L 199.855469 150.152344 C 189.25 150.152344 178.695312 148.738281 168.464844 145.945312 L 167.378906 145.648438 C 157.878906 143.054688 148.8125 139.089844 140.457031 133.878906 L 139.300781 133.15625 C 131.734375 128.433594 125.050781 122.421875 119.5625 115.390625 L 118.957031 114.613281 C 113.890625 108.125 110.300781 100.605469 108.449219 92.585938 L 108.421875 92.480469 C 106.585938 84.535156 106.59375 76.277344 108.449219 68.339844 C 110.304688 60.386719 113.847656 52.929688 118.839844 46.46875 L 119.5625 45.535156 C 125.050781 38.429688 131.761719 32.363281 139.375 27.609375 L 140.457031 26.933594 C 148.8125 21.722656 157.878906 17.757812 167.378906 15.164062 L 168.464844 14.867188 C 178.695312 12.074219 189.25 10.660156 199.855469 10.660156 L 201.097656 10.660156 C 211.703125 10.660156 222.257812 12.074219 232.488281 14.867188 Z M 232.488281 14.867188 " clip-rule="nonzero"/></clipPath><clipPath id="b31b1eaa27"><path d="M 0 0.660156 L 186.917969 0.660156 L 186.917969 140.238281 L 0 140.238281 Z M 0 0.660156 " clip-rule="nonzero"/></clipPath><clipPath id="997adabe9e"><path d="M 125.488281 4.867188 L 126.574219 5.164062 C 136.074219 7.757812 145.140625 11.722656 153.496094 16.933594 L 154.578125 17.609375 C 162.191406 22.363281 168.902344 28.429688 174.390625 35.535156 L 175.113281 36.46875 C 180.105469 42.929688 183.648438 50.386719 185.503906 58.339844 C 187.359375 66.277344 187.367188 74.535156 185.53125 82.480469 L 185.503906 82.585938 C 183.652344 90.605469 180.0625 98.125 174.996094 104.613281 L 174.390625 105.390625 C 168.902344 112.421875 162.21875 118.433594 154.652344 123.15625 L 153.496094 123.878906 C 145.140625 129.089844 136.074219 133.054688 126.574219 135.648438 L 125.488281 135.945312 C 115.257812 138.738281 104.703125 140.152344 94.097656 140.152344 L 92.855469 140.152344 C 82.25 140.152344 71.695312 138.738281 61.464844 135.945312 L 60.378906 135.648438 C 50.878906 133.054688 41.8125 129.089844 33.457031 123.878906 L 32.300781 123.15625 C 24.734375 118.433594 18.050781 112.421875 12.5625 105.390625 L 11.957031 104.613281 C 6.890625 98.125 3.300781 90.605469 1.449219 82.585938 L 1.421875 82.480469 C -0.414062 74.535156 -0.40625 66.277344 1.449219 58.339844 C 3.304688 50.386719 6.847656 42.929688 11.839844 36.46875 L 12.5625 35.535156 C 18.050781 28.429688 24.761719 22.363281 32.375 17.609375 L 33.457031 16.933594 C 41.8125 11.722656 50.878906 7.757812 60.378906 5.164062 L 61.464844 4.867188 C 71.695312 2.074219 82.25 0.660156 92.855469 0.660156 L 94.097656 0.660156 C 104.703125 0.660156 115.257812 2.074219 125.488281 4.867188 Z M 125.488281 4.867188 " clip-rule="nonzero"/></clipPath><clipPath id="c530d2be62"><rect x="0" width="187" y="0" height="141"/></clipPath><clipPath id="533a4987dc"><path d="M 6.046875 0 L 369 0 L 369 225 L 6.046875 225 Z M 6.046875 0 " clip-rule="nonzero"/></clipPath><clipPath id="1968e80add"><path d="M 68 103 L 157 103 L 157 201.996094 L 68 201.996094 Z M 68 103 " clip-rule="nonzero"/></clipPath></defs><g clip-path="url(#b35a287b97)"><g clip-path="url(#9b93e1aaed)"><g transform="matrix(1, 0, 0, 1, 19, 112)"><g clip-path="url(#dee1f38a63)"><g clip-path="url(#059bd87b8e)"><g clip-path="url(#fbcd8afb30)"><path fill="#8c52ff" d="M 0.761719 0.5 L 345.195312 0.5 L 345.195312 107.636719 L 0.761719 107.636719 Z M 0.761719 0.5 " fill-opacity="1" fill-rule="nonzero"/></g></g></g></g></g></g><g clip-path="url(#9d57d19af0)"><g clip-path="url(#3665d7fafb)"><g transform="matrix(1, 0, 0, 1, 12, 75)"><g clip-path="url(#10bc091814)"><g clip-path="url(#be779fc111)"><g clip-path="url(#25b93556ee)"><path fill="#8c52ff" d="M 0.503906 0.382812 L 295.488281 0.382812 L 295.488281 124.179688 L 0.503906 124.179688 Z M 0.503906 0.382812 " fill-opacity="1" fill-rule="nonzero"/></g></g></g></g></g></g><g clip-path="url(#b559354be9)"><g clip-path="url(#fa9d33f97f)"><g transform="matrix(1, 0, 0, 1, 107, 10)"><g clip-path="url(#c530d2be62)"><g clip-path="url(#b31b1eaa27)"><g clip-path="url(#997adabe9e)"><path fill="#8c52ff" d="M -1.367188 0.660156 L 188.554688 0.660156 L 188.554688 140.375 L -1.367188 140.375 Z M -1.367188 0.660156 " fill-opacity="1" fill-rule="nonzero"/></g></g></g></g></g></g><g clip-path="url(#533a4987dc)"><path fill="#ff5757" d="M 312.449219 111.792969 C 309.6875 111.792969 306.941406 111.992188 304.230469 112.390625 C 304.3125 110.6875 304.355469 109.007812 304.355469 107.355469 C 304.355469 48.292969 256.308594 0.246094 197.246094 0.246094 C 154.570312 0.246094 115.664062 26.054688 98.863281 64.984375 C 94.691406 64.320312 90.53125 63.988281 86.441406 63.988281 C 42.113281 63.988281 6.046875 100.050781 6.046875 144.382812 C 6.046875 188.710938 42.113281 224.777344 86.445312 224.777344 L 312.453125 224.777344 C 343.601562 224.777344 368.945312 199.433594 368.945312 168.285156 C 368.945312 137.136719 343.597656 111.792969 312.449219 111.792969 Z M 312.449219 212.679688 L 86.445312 212.679688 C 48.785156 212.679688 18.144531 182.042969 18.144531 144.382812 C 18.144531 106.722656 48.785156 76.082031 86.445312 76.082031 C 91.308594 76.082031 96.304688 76.644531 101.304688 77.757812 C 104.242188 78.417969 107.21875 76.796875 108.277344 73.980469 C 122.117188 37.109375 157.871094 12.339844 197.246094 12.339844 C 249.640625 12.339844 292.261719 54.964844 292.261719 107.355469 C 292.261719 111.203125 292 115.234375 291.480469 119.347656 C 291.226562 121.386719 292.023438 123.417969 293.597656 124.738281 C 295.171875 126.058594 297.3125 126.488281 299.277344 125.878906 C 303.523438 124.558594 307.957031 123.890625 312.453125 123.890625 C 336.933594 123.890625 356.847656 143.804688 356.847656 168.285156 C 356.847656 192.765625 336.933594 212.679688 312.449219 212.679688 Z M 312.449219 212.679688 " fill-opacity="1" fill-rule="nonzero"/></g><g clip-path="url(#1968e80add)"><path fill="#ffffff" d="M 153.0625 103.25 L 89.605469 113.71875 C 88.335938 114.035156 87.382812 114.988281 87.066406 116.257812 C 87.066406 116.574219 87.066406 116.890625 87.066406 117.210938 L 87.066406 179.078125 C 85.164062 178.128906 82.941406 177.492188 81.039062 177.492188 C 74.058594 177.492188 68.664062 182.886719 68.664062 189.867188 C 68.664062 196.53125 74.058594 202.242188 81.039062 202.242188 C 87.703125 202.242188 93.414062 196.847656 93.414062 189.867188 C 93.414062 189.550781 93.414062 189.230469 93.414062 188.914062 C 93.414062 188.914062 93.414062 188.597656 93.414062 188.597656 L 93.414062 142.589844 L 150.523438 133.074219 L 150.523438 168.292969 C 148.621094 167.339844 146.714844 166.707031 144.496094 166.707031 C 137.832031 166.707031 132.121094 172.097656 132.121094 179.078125 C 132.121094 185.742188 137.515625 191.453125 144.496094 191.453125 C 151.160156 191.453125 156.550781 186.058594 156.871094 179.398438 C 156.871094 179.398438 156.871094 179.398438 156.871094 179.078125 L 156.871094 106.421875 C 156.871094 105.46875 156.550781 104.519531 155.601562 103.882812 C 154.964844 103.25 154.015625 102.929688 153.0625 103.25 Z M 153.0625 103.25 " fill-opacity="1" fill-rule="nonzero"/></g><path fill="#ffffff" d="M 203.191406 114.671875 C 216.203125 110.230469 217.472656 91.828125 205.097656 85.796875 C 202.875 84.847656 200.65625 84.210938 198.117188 84.210938 C 192.40625 84.210938 186.695312 87.382812 184.15625 93.09375 C 177.808594 105.152344 189.867188 119.113281 203.191406 114.671875 Z M 203.191406 114.671875 " fill-opacity="1" fill-rule="nonzero"/><path fill="#ffffff" d="M 271.410156 93.09375 C 269.824219 73.425781 260.304688 55.65625 245.390625 42.964844 C 230.164062 30.273438 211.125 24.246094 191.769531 26.148438 C 171.78125 28.050781 154.332031 37.253906 141.640625 52.484375 C 130.21875 66.125 124.191406 83.894531 124.507812 101.664062 L 152.109375 97.21875 C 154.332031 96.902344 157.503906 97.539062 159.726562 99.441406 C 161.945312 101.34375 162.898438 103.882812 162.898438 106.738281 L 162.898438 165.117188 C 211.761719 191.136719 276.804688 154.015625 271.410156 93.09375 Z M 231.75 112.765625 C 233.335938 113.402344 233.96875 115.304688 233.335938 116.890625 C 226.355469 130.851562 212.394531 138.785156 198.117188 138.785156 C 192.089844 138.785156 186.378906 137.515625 180.984375 134.660156 C 179.398438 134.023438 178.761719 132.121094 179.398438 130.535156 C 180.03125 128.949219 181.933594 128.3125 183.523438 128.949219 C 199.703125 136.878906 219.375 130.21875 227.308594 114.035156 C 228.257812 112.449219 230.164062 111.816406 231.75 112.765625 Z M 178.128906 89.921875 C 183.523438 79.136719 196.53125 74.691406 207.636719 79.769531 C 225.402344 88.335938 223.5 114.035156 205.097656 120.382812 C 186.695312 126.726562 169.5625 107.691406 178.128906 89.921875 Z M 153.378906 77.867188 C 152.746094 79.453125 150.523438 80.085938 149.253906 79.453125 C 147.667969 78.816406 147.035156 76.914062 147.667969 75.328125 C 154.332031 62 165.753906 51.847656 179.714844 47.089844 C 193.992188 42.332031 209.222656 43.28125 222.546875 49.628906 C 224.132812 50.261719 224.769531 52.164062 224.132812 53.753906 C 223.5 55.339844 221.59375 55.972656 220.007812 55.339844 C 207.953125 49.628906 194.625 48.675781 181.933594 52.800781 C 169.242188 56.925781 159.089844 65.808594 153.378906 77.867188 Z M 164.484375 86.75 C 162.898438 85.796875 162.261719 83.894531 162.898438 82.625 C 172.417969 63.269531 195.578125 55.339844 215.25 64.855469 C 216.835938 65.808594 217.472656 67.710938 216.835938 68.980469 C 216.203125 70.566406 214.296875 71.203125 212.710938 70.566406 C 196.214844 62.320312 176.542969 68.980469 168.609375 85.480469 C 167.976562 87.066406 166.070312 87.703125 164.484375 86.75 Z M 248.246094 124.507812 C 234.921875 152.109375 201.289062 163.851562 173.367188 150.207031 C 171.78125 149.253906 171.148438 147.351562 171.78125 146.082031 C 172.734375 144.496094 174.320312 143.859375 175.90625 144.496094 C 200.65625 156.550781 230.480469 146.398438 242.535156 121.652344 C 243.171875 120.066406 245.074219 119.429688 246.660156 120.066406 C 248.566406 121.015625 249.199219 122.921875 248.246094 124.507812 Z M 248.246094 124.507812 " fill-opacity="1" fill-rule="nonzero"/></svg>